<svg width="1061" height="344" viewBox="0 0 1061 344" fill="none" xmlns="http://www.w3.org/2000/svg">
<g clip-path="url(#clip0_305_124)">
<path d="M868.936 127.117C866.561 127.117 864.284 128.062 862.605 129.743C860.926 131.423 859.983 133.703 859.983 136.081V209.897C859.983 212.274 860.926 214.554 862.605 216.235C864.284 217.916 866.561 218.86 868.936 218.86C871.31 218.86 873.588 217.916 875.267 216.235C876.946 214.554 877.889 212.274 877.889 209.897V136.081C877.907 134.899 877.687 133.725 877.243 132.63C876.8 131.534 876.141 130.539 875.306 129.703C874.471 128.867 873.477 128.207 872.383 127.763C871.289 127.319 870.116 127.099 868.936 127.117Z" fill="#2050F5"/>
<path d="M119.653 145.967C124.429 143.407 129.772 142.092 135.189 142.144C139.901 142.063 144.56 143.15 148.75 145.308C151.251 146.537 153.522 148.187 155.465 150.185C156.815 151.529 158.585 152.367 160.479 152.559C162.373 152.751 164.275 152.285 165.866 151.239C166.903 150.578 167.775 149.688 168.414 148.637C169.053 147.586 169.443 146.402 169.553 145.176C169.701 143.928 169.565 142.663 169.155 141.476C168.744 140.289 168.07 139.21 167.183 138.321C164.375 135.455 161.131 133.052 157.572 131.203C150.698 127.805 143.118 126.089 135.453 126.194C126.737 126.074 118.132 128.16 110.437 132.258C103.281 136.114 97.316 141.858 93.1894 148.867C89.0124 156.21 86.8757 164.539 87.0013 172.989C86.8757 181.438 89.0124 189.767 93.1894 197.111C97.3078 204.16 103.272 209.948 110.437 213.851C118.109 218.01 126.73 220.1 135.453 219.915C143.135 220.042 150.731 218.277 157.572 214.774C161.212 212.937 164.508 210.484 167.315 207.524C168.168 206.634 168.812 205.564 169.201 204.393C169.59 203.222 169.713 201.979 169.561 200.755C169.41 199.53 168.988 198.355 168.326 197.314C167.664 196.273 166.779 195.393 165.735 194.738C164.134 193.766 162.256 193.354 160.397 193.569C158.537 193.784 156.802 194.613 155.465 195.924C153.491 197.923 151.227 199.611 148.75 200.933C144.56 203.091 139.901 204.178 135.189 204.097C129.772 204.149 124.429 202.834 119.653 200.274C115.139 197.708 111.442 193.915 108.989 189.334C106.265 184.326 104.903 178.689 105.039 172.989C104.938 167.334 106.299 161.749 108.989 156.775C111.444 152.23 115.144 148.48 119.653 145.967Z" fill="#2050F5"/>
<path d="M376.392 91C375.212 90.9822 374.039 91.2019 372.945 91.6461C371.851 92.0903 370.857 92.7498 370.022 93.5857C369.187 94.4216 368.528 95.4168 368.085 96.5123C367.641 97.6079 367.421 98.7814 367.439 99.9634V139.244C364.097 135.291 359.913 132.139 355.195 130.017C349.717 127.447 343.733 126.141 337.684 126.194C329.489 126.092 321.41 128.137 314.248 132.126C307.361 135.965 301.701 141.677 297.922 148.603C293.529 156.001 291.211 164.448 291.211 173.055C291.211 181.661 293.529 190.108 297.922 197.506C301.701 204.432 307.361 210.144 314.248 213.983C321.41 217.972 329.489 220.017 337.684 219.915C343.92 220.003 350.093 218.649 355.721 215.96C360.539 213.642 364.77 210.262 368.098 206.074V210.292C368.098 212.564 368.999 214.744 370.604 216.351C372.209 217.957 374.386 218.86 376.655 218.86C378.937 218.86 381.128 217.962 382.754 216.359C384.38 214.756 385.311 212.577 385.345 210.292V99.9634C385.345 97.5862 384.402 95.3063 382.723 93.6253C381.044 91.9444 378.767 91 376.392 91ZM353.483 200.142C349.121 202.792 344.103 204.162 339 204.097C333.817 204.149 328.718 202.781 324.254 200.142C319.875 197.489 316.284 193.712 313.853 189.202C311.252 184.2 309.94 178.627 310.035 172.989C309.957 167.352 311.268 161.783 313.853 156.775C316.249 152.274 319.851 148.531 324.254 145.967C328.729 143.367 333.829 142.045 339 142.144C344.091 142.032 349.11 143.357 353.483 145.967C357.874 148.505 361.44 152.258 363.753 156.775C366.338 161.783 367.649 167.352 367.571 172.989C367.666 178.627 366.353 184.2 363.753 189.202C361.407 193.73 357.852 197.518 353.483 200.142Z" fill="#2050F5"/>
<path d="M465.395 132.258C458.258 128.194 450.17 126.101 441.959 126.194C433.707 126.103 425.578 128.195 418.392 132.258C411.425 136.154 405.715 141.962 401.934 148.998C397.889 156.341 395.803 164.604 395.878 172.989C395.767 181.478 397.902 189.846 402.066 197.242C406.159 204.357 412.186 210.162 419.445 213.983C427.433 218.043 436.294 220.08 445.251 219.915C452.281 219.995 459.258 218.696 465.79 216.092C469.411 214.561 472.818 212.567 475.928 210.16C476.753 209.509 477.437 208.696 477.939 207.772C478.441 206.848 478.751 205.831 478.85 204.784C478.948 203.736 478.833 202.68 478.512 201.678C478.191 200.677 477.67 199.75 476.981 198.956C475.697 197.423 473.872 196.444 471.886 196.223C469.9 196.002 467.905 196.556 466.317 197.77C460.787 201.988 453.809 204.097 445.646 204.097C437.483 204.097 429.846 201.724 424.053 196.979C418.559 192.668 414.968 186.375 414.047 179.448V179.184H481.458C482.959 179.184 484.399 178.587 485.461 177.524C486.523 176.461 487.119 175.019 487.119 173.516C487.37 164.992 485.42 156.547 481.458 148.998C477.79 142.011 472.221 136.207 465.395 132.258ZM470.661 165.607L469.74 165.871H413.916C414.768 159.274 417.942 153.198 422.868 148.735C428.211 144.227 434.973 141.755 441.959 141.755C448.946 141.755 455.708 144.227 461.05 148.735C465.958 153.212 469.129 159.281 470.003 165.871L470.661 165.607Z" fill="#2050F5"/>
<path d="M611.275 126.194C604.079 126.113 596.961 127.692 590.473 130.808C584.944 133.358 580.179 137.311 576.648 142.276C573.777 137.269 569.526 133.196 564.404 130.544C558.487 127.565 551.935 126.072 545.313 126.194C538.923 126.119 532.591 127.423 526.749 130.017C522.214 132.075 518.207 135.141 515.031 138.981V135.685C514.997 133.401 514.066 131.222 512.44 129.619C510.814 128.015 508.624 127.117 506.342 127.117C504.072 127.117 501.895 128.02 500.29 129.627C498.685 131.233 497.784 133.413 497.784 135.685V210.292C497.784 212.565 498.685 214.744 500.29 216.351C501.895 217.957 504.072 218.86 506.342 218.86H507.131C509.401 218.86 511.578 217.957 513.183 216.351C514.788 214.744 515.689 212.565 515.689 210.292V171.67C515.689 162.18 518.059 154.93 522.799 149.921C527.539 144.912 533.859 142.408 541.89 142.408C549.921 142.408 554.793 144.649 558.611 148.867C562.429 153.085 564.404 159.544 564.404 168.112V210.292C564.439 212.577 565.369 214.756 566.995 216.359C568.621 217.962 570.812 218.86 573.094 218.86H573.752C576.022 218.86 578.198 217.957 579.803 216.351C581.408 214.744 582.31 212.565 582.31 210.292V171.67C582.31 162.18 584.68 154.93 589.42 149.921C594.159 144.912 600.611 142.408 608.642 142.408C616.673 142.408 621.413 144.649 625.231 148.867C629.05 153.085 631.156 159.544 631.156 168.112V210.292C631.156 212.565 632.058 214.744 633.663 216.351C635.268 217.957 637.444 218.86 639.714 218.86H640.372C642.642 218.86 644.819 217.957 646.424 216.351C648.029 214.744 648.93 212.565 648.93 210.292V166.134C648.93 153.085 645.507 143.067 638.792 136.344C632.078 129.622 622.861 126.194 611.275 126.194Z" fill="#2050F5"/>
<path d="M699.751 126.194C692.705 126.166 685.694 127.187 678.949 129.226C675.082 130.463 671.336 132.051 667.758 133.972C666.036 135.04 664.78 136.72 664.243 138.675C663.706 140.631 663.927 142.717 664.861 144.517C665.356 145.424 666.026 146.223 666.832 146.868C667.639 147.513 668.565 147.99 669.558 148.273C670.551 148.555 671.59 148.636 672.615 148.512C673.64 148.388 674.629 148.06 675.526 147.548C677.795 146.411 680.124 145.399 682.504 144.517C687.458 142.791 692.663 141.9 697.908 141.88C705.545 141.88 711.469 143.726 715.419 147.417C719.369 151.107 721.212 156.116 721.212 162.971V165.212C721.212 165.247 721.198 165.28 721.174 165.305C721.149 165.33 721.115 165.343 721.081 165.343H696.197C683.426 165.343 673.946 167.848 668.153 172.857C665.244 175.243 662.924 178.268 661.371 181.697C659.819 185.126 659.076 188.866 659.2 192.629C659.113 196.426 659.912 200.191 661.535 203.623C663.158 207.056 665.559 210.062 668.548 212.401C674.736 217.41 683.031 219.915 693.3 219.915C699.529 220.05 705.717 218.883 711.469 216.487C715.626 214.781 719.292 212.062 722.134 208.579V210.424C722.392 212.497 723.398 214.403 724.962 215.786C726.525 217.168 728.54 217.931 730.626 217.931C732.712 217.931 734.727 217.168 736.29 215.786C737.854 214.403 738.86 212.497 739.118 210.424V163.63C739.118 151.371 735.695 141.88 728.98 135.685C722.266 129.49 712.391 126.194 699.751 126.194ZM721.212 178.92V190.388C719.389 195.111 716.056 199.097 711.733 201.724C706.926 204.462 701.462 205.83 695.933 205.679C690.009 205.679 685.137 204.492 681.846 201.988C680.242 200.839 678.946 199.311 678.073 197.541C677.2 195.77 676.778 193.811 676.842 191.838C676.842 183.007 683.426 178.657 696.855 178.657H721.081C721.157 178.724 721.204 178.819 721.212 178.92Z" fill="#2050F5"/>
<path d="M835.362 127.117C833.116 127.152 830.972 128.07 829.396 129.673C827.819 131.276 826.936 133.435 826.936 135.685V139.64C823.433 135.48 819.017 132.187 814.033 130.017C808.223 127.468 801.944 126.166 795.601 126.194C787.619 126.068 779.737 127.973 772.692 131.731C765.847 135.266 760.175 140.715 756.366 147.417C752.267 154.45 750.173 162.474 750.309 170.616C750.156 178.718 752.253 186.704 756.366 193.684C760.131 200.453 765.811 205.956 772.692 209.501C779.703 213.361 787.601 215.315 795.601 215.169C801.667 215.253 807.682 214.039 813.243 211.61C818.16 209.634 822.537 206.517 826.014 202.515V207.524C826.014 217.542 823.644 224.924 818.773 229.801C813.902 234.678 806.134 237.05 795.864 237.05C789.465 237.074 783.105 236.05 777.036 234.019C774.321 233.077 771.68 231.931 769.137 230.592C767.266 229.688 765.124 229.52 763.136 230.122C761.148 230.723 759.457 232.049 758.398 233.838C757.339 235.627 756.989 237.749 757.417 239.783C757.845 241.818 759.021 243.618 760.711 244.828C764.236 246.824 767.995 248.374 771.902 249.441C779.832 251.887 788.093 253.087 796.391 253C812.058 253 824.039 249.046 831.939 241.4C839.839 233.755 843.92 221.76 843.92 205.81V135.685C843.92 134.56 843.699 133.446 843.269 132.406C842.839 131.367 842.208 130.422 841.414 129.627C840.619 128.831 839.676 128.2 838.637 127.769C837.599 127.339 836.486 127.117 835.362 127.117ZM826.409 170.616C826.51 175.812 825.14 180.93 822.459 185.379C820.049 189.734 816.438 193.303 812.058 195.661C807.578 198.097 802.541 199.324 797.444 199.22C792.264 199.31 787.146 198.086 782.566 195.661C778.186 193.303 774.576 189.734 772.165 185.379C769.581 180.895 768.262 175.792 768.347 170.616C768.347 161.784 770.98 155.062 776.378 150.053C781.776 145.044 788.754 142.144 797.444 142.144C806.134 142.144 812.058 144.517 817.983 150.053C823.908 155.589 826.409 162.18 826.409 170.616Z" fill="#2050F5"/>
<path d="M970.052 194.738C968.479 193.753 966.617 193.334 964.775 193.549C962.932 193.765 961.217 194.603 959.914 195.924C957.94 197.923 955.676 199.611 953.199 200.933C948.997 203.061 944.346 204.146 939.638 204.097C934.217 204.178 928.867 202.862 924.102 200.274C919.548 197.716 915.806 193.924 913.306 189.334C910.582 184.326 909.22 178.689 909.356 172.989C909.255 167.334 910.616 161.749 913.306 156.775C915.814 152.225 919.557 148.478 924.102 145.967C928.867 143.379 934.217 142.063 939.638 142.144C944.346 142.095 948.997 143.18 953.199 145.308C955.639 146.572 957.861 148.219 959.782 150.185C961.132 151.529 962.902 152.367 964.796 152.559C966.69 152.751 968.592 152.285 970.183 151.239C971.22 150.578 972.092 149.688 972.731 148.637C973.37 147.586 973.76 146.402 973.87 145.176C974.035 143.938 973.92 142.679 973.532 141.493C973.145 140.306 972.495 139.222 971.632 138.321C968.772 135.515 965.537 133.12 962.02 131.203C955.1 127.804 947.477 126.088 939.77 126.194C931.056 126.091 922.455 128.176 914.754 132.258C907.605 136.077 901.674 141.832 897.638 148.867C893.36 156.174 891.173 164.52 891.318 172.989C891.173 181.458 893.36 189.803 897.638 197.111C901.671 204.18 907.6 209.979 914.754 213.851C922.43 217.999 931.048 220.088 939.77 219.915C947.494 220.042 955.133 218.277 962.02 214.774C965.619 212.933 968.871 210.48 971.632 207.524C972.485 206.634 973.129 205.564 973.518 204.393C973.907 203.222 974.03 201.979 973.878 200.755C973.727 199.53 973.305 198.355 972.643 197.314C971.981 196.273 971.096 195.393 970.052 194.738Z" fill="#2050F5"/>
<path d="M278.302 164.684L252.233 151.767C251.953 151.618 251.723 151.388 251.575 151.108L238.672 125.008C237.917 123.448 236.739 122.133 235.272 121.212C233.805 120.291 232.109 119.803 230.377 119.803C228.646 119.803 226.95 120.291 225.483 121.212C224.016 122.133 222.838 123.448 222.083 125.008L209.312 151.108C209.18 151.503 208.917 151.635 208.522 151.898L182.453 164.684C180.895 165.44 179.581 166.62 178.661 168.088C177.742 169.557 177.254 171.255 177.254 172.989C177.254 174.722 177.742 176.42 178.661 177.889C179.581 179.358 180.895 180.538 182.453 181.293L208.653 194.211L209.312 194.87L222.083 220.969C222.859 222.523 224.053 223.831 225.529 224.744C227.006 225.658 228.708 226.142 230.443 226.142C232.179 226.142 233.881 225.658 235.357 224.744C236.834 223.831 238.027 222.523 238.804 220.969L251.575 194.87C251.723 194.589 251.953 194.359 252.233 194.211L278.302 181.293C279.86 180.538 281.174 179.358 282.094 177.889C283.013 176.42 283.501 174.722 283.501 172.989C283.501 171.255 283.013 169.557 282.094 168.088C281.174 166.62 279.86 165.44 278.302 164.684ZM258.948 166.53L246.835 177.075C244.426 179.224 242.765 182.087 242.095 185.247L239.067 200.933C239.029 201.161 238.925 201.372 238.769 201.542C238.612 201.711 238.41 201.831 238.186 201.887C237.963 201.943 237.728 201.932 237.51 201.857C237.292 201.781 237.101 201.643 236.961 201.461L226.428 189.466C224.319 187.008 221.442 185.335 218.265 184.72L202.465 181.557C202.238 181.518 202.027 181.414 201.858 181.258C201.689 181.101 201.569 180.898 201.513 180.675C201.457 180.451 201.468 180.216 201.543 179.998C201.619 179.78 201.756 179.589 201.939 179.448L214.052 168.902C216.466 166.778 218.09 163.897 218.66 160.73L221.82 145.044C221.858 144.817 221.962 144.605 222.118 144.436C222.275 144.267 222.477 144.147 222.701 144.091C222.924 144.035 223.159 144.045 223.377 144.121C223.594 144.197 223.785 144.334 223.926 144.517L234.459 156.512C236.568 158.97 239.444 160.642 242.622 161.257L258.421 164.421C258.648 164.459 258.86 164.563 259.029 164.72C259.198 164.876 259.318 165.079 259.374 165.303C259.43 165.527 259.419 165.762 259.343 165.98C259.268 166.198 259.13 166.389 258.948 166.53Z" fill="url(#paint0_linear_305_124)"/>
</g>
<defs>
<linearGradient id="paint0_linear_305_124" x1="177.254" y1="172.972" x2="283.503" y2="172.972" gradientUnits="userSpaceOnUse">
<stop stop-color="#D93448"/>
<stop offset="1" stop-color="#F09437"/>
</linearGradient>
<clipPath id="clip0_305_124">
<rect width="887" height="162" fill="white" transform="translate(87 91)"/>
</clipPath>
</defs>
</svg>
