<svg viewBox="255.00000000000003 672 999 141" data-version="1" data-id="lg_fI72TWfFCxWxhANFzz" xml:space="preserve"
     xmlns="http://www.w3.org/2000/svg" style="max-height: 500px" width="999" height="141"><path d="M0 0h1500v1500H0z" stroke="transparent" fill="none"/>
    <g data-padding="20"><g transform="translate(-562.057 -577.02)scale(1.71018)"><rect transform="translate(400.5 400.41)" ry="0" rx="0" fill="none" y="331.476" x="84.541" height="88.14" width="560"/><path
            d="M550.79 762.706q0 6.79-3.31 11.47-3.32 4.68-11.35 6.78.94 1.25 1.33 1.95l12.63 17.55h-21.21q-3.44-6.39-10.85-18.09h-11.46v18.09h-18.41q.62-15.13.62-28.31t-.62-28.32h18.41v.08h15.99q15.75 0 21.99 5.07t6.24 13.73m-33.69-3.82h-10.53v8.89h10.53q6.63 0 10.02-.43t4.72-1.36q1.33-.94 1.33-2.73 0-1.72-1.25-2.66-1.25-.93-4.68-1.32t-10.14-.39m58.34 19.19v8.11q29.64-.16 42.98-.86-.55 3.2-.66 6.59-.12 3.39-.12 8.54h-60.61q.63-15.13.63-28.31t-.63-28.32h60.61v14.12h-42.2v7.49q3.75.08 11.08.08 12.4 0 25.66-.47v13.42q-13.26-.47-25.66-.47-7.33 0-11.08.08m94.62-34.25h20.9l-5.15 11.94q-6.78 15.83-10.68 25.35-3.9 9.51-7.18 19.34h-23.32q-3.2-9.67-7.06-19.15-3.86-9.47-10.34-24.29-1.09-2.5-5.69-13.19h21.68q2.34 7.57 6.95 19.43 4.05 10.45 6.55 18.09 1.64-5.38 3.94-11.5 2.3-6.13 2.77-7.45 4.52-11.94 6.63-18.57m59.74 57.41q-17.86 0-26.28-7.76-8.43-7.76-8.43-21.8 0-13.88 8.39-21.68 8.38-7.8 26.32-7.8 18.02 0 26.41 7.8 8.38 7.8 8.38 21.68 0 14.12-8.34 21.84-8.35 7.72-26.45 7.72m0-15.91q8.66 0 12.48-3.31 3.83-3.32 3.83-10.34 0-6.86-3.83-10.22-3.82-3.35-12.48-3.35-8.58 0-12.4 3.35-3.82 3.36-3.82 10.22 0 6.94 3.82 10.3 3.82 3.35 12.4 3.35m60.22-41.42h16.22q15.53 0 21.61 5.5t6.08 15.48q0 6.87-2.41 11.67-2.42 4.79-8.51 7.48-6.08 2.69-16.77 2.69h-16.22v13.73h-19.19q.63-15.13.63-28.31t-.63-28.32h19.19Zm0 27.77h10.76q6.48 0 9.72-.51 3.23-.5 4.52-1.83t1.29-3.9-1.21-3.86-4.45-1.76q-3.24-.46-9.87-.46h-10.76Zm96.34 1.72v-29.64h19.34v31.04q-.15 11.47-7.83 18.95-7.69 7.49-25.86 7.49-18.41 0-25.2-7.13-6.78-7.14-6.63-18.76v-31.59h19.35v30.34q0 3.43.51 5.58.5 2.14 3.27 4.01t8.93 1.87q6.71 0 9.83-1.91t3.71-4.25q.58-2.34.58-6m25.57 20.35q2.66-3.97 4.41-7.41 1.76-3.43 3.39-7.95 5.54 3.2 12.87 4.99 7.34 1.79 13.65 1.79 6.48 0 9.13-1.13t2.65-2.45q0-4.76-14.51-4.76-15.91 0-23.08-3.32-7.18-3.31-7.18-10.72 0-10.53 8.74-15.52 8.73-5 22.69-5 8.12 0 16.66 2.07t15.4 5.66q-2.26 5.14-4.76 12.55-.46 1.56-.78 2.34-3.97-3.19-12.01-5.34-8.03-2.14-14.19-2.14-7.41 0-9.99.97-2.57.98-2.57 2.85t3.55 3 10.25 1.13q16.54 0 24.03 3.79 7.49 3.78 7.49 11.58 0 10.92-7.96 15.72-7.96 4.79-24.1 4.79-8.66 0-17.63-1.91t-16.15-5.58m119.11-49.92h18.33q-.55 13.19-.55 28.32t.55 28.31h-18.33v-21.21h-28.7v21.21h-18.33q.62-15.13.62-28.31t-.62-28.32h18.33v21.22h28.7Z"/></g>
        <path d="M250 671.986h1000v156.028H250z" stroke-width="1.773" stroke="transparent" fill="transparent"/></g></svg>
